<?xml version="1.0" standalone="no"?>
<!DOCTYPE svg PUBLIC "-//W3C//DTD SVG 20010904//EN"
 "http://www.w3.org/TR/2001/REC-SVG-20010904/DTD/svg10.dtd">
<svg version="1.0" xmlns="http://www.w3.org/2000/svg"
 width="512.000000pt" height="512.000000pt" viewBox="0 0 512.000000 512.000000"
 preserveAspectRatio="xMidYMid meet">
<metadata>
Created by potrace 1.14, written by Peter Selinger 2001-2017
</metadata>
<g transform="translate(0.000000,512.000000) scale(0.100000,-0.100000)"
fill="#000000" stroke="none">
<path d="M1120 2560 l0 -2560 480 0 480 0 0 1278 1 1277 115 -305 c63 -168
146 -390 185 -495 39 -104 74 -199 79 -210 10 -21 504 -1339 550 -1465 l27
-75 482 -3 481 -2 0 2560 0 2560 -480 0 -480 0 -2 -1276 -3 -1275 -26 73 c-14
40 -128 345 -254 678 -125 333 -231 616 -236 630 -4 14 -104 282 -222 595
l-215 570 -481 3 -481 2 0 -2560z"/>
</g>
</svg>
